<?xml version="1.0" standalone="no"?>
<!DOCTYPE svg PUBLIC "-//W3C//DTD SVG 20010904//EN"
 "http://www.w3.org/TR/2001/REC-SVG-20010904/DTD/svg10.dtd">
<svg version="1.0" xmlns="http://www.w3.org/2000/svg"
 width="3020.000000pt" height="3113.000000pt" viewBox="0 0 3020.000000 3113.000000"
 preserveAspectRatio="xMidYMid meet">
<metadata>
Created by potrace 1.16, written by Peter Selinger 2001-2019
</metadata>
<g transform="translate(0.000000,3113.000000) scale(0.100000,-0.100000)"
fill="#000000" stroke="none">
<path d="M14195 23609 c-1513 -90 -2914 -525 -4004 -1246 -349 -231 -616 -447
-897 -728 -369 -369 -637 -727 -876 -1170 -308 -572 -487 -1183 -560 -1910
-20 -201 -17 -845 5 -1065 47 -461 100 -748 283 -1520 662 -2790 1578 -5110
2657 -6730 244 -366 514 -726 713 -950 17 -19 69 -78 115 -130 46 -52 169
-181 274 -286 900 -902 1866 -1364 2850 -1364 1327 0 2628 852 3771 2470 90
128 209 307 360 540 12 19 62 103 112 185 936 1571 1693 3549 2303 6020 292
1187 363 1641 363 2330 0 626 -74 1107 -255 1665 -424 1301 -1432 2387 -2859
3079 -963 466 -2064 740 -3267 811 -199 12 -883 11 -1088 -1z m5643 -6748 c59
-30 110 -85 141 -150 72 -154 -8 -352 -165 -411 -58 -21 -147 -26 -200 -11
-30 8 -31 8 -32 -24 -4 -104 -100 -195 -207 -195 -61 0 -139 41 -171 89 -51
78 -45 187 13 252 44 48 74 65 133 74 l45 7 0 86 c0 77 4 94 29 145 33 64 74
105 138 138 80 41 196 41 276 0z m-9893 2 c56 -29 120 -99 146 -157 22 -50 29
-148 15 -193 -6 -20 -4 -23 20 -23 113 0 213 -98 214 -208 1 -151 -159 -255
-296 -193 -67 30 -124 117 -124 189 0 19 -3 20 -31 10 -54 -19 -168 -5 -228
28 -219 119 -211 437 13 546 56 27 68 29 146 25 61 -2 96 -9 125 -24z m4260
-5323 c594 -60 1149 -275 1552 -601 185 -150 393 -387 550 -626 108 -166 105
-140 36 -296 -109 -247 -245 -443 -318 -461 -36 -9 -60 13 -92 84 -41 93 -143
459 -143 514 0 21 -10 31 -50 51 -107 54 -740 305 -893 354 -263 84 -628 155
-907 176 -47 4 -96 9 -110 11 -46 8 -514 13 -582 7 -51 -4 -68 -10 -68 -21 0
-12 16 -14 105 -9 58 4 105 4 105 0 0 -16 -77 -128 -115 -167 -47 -49 -84 -64
-119 -48 -45 20 -103 182 -166 463 -41 184 -90 473 -82 480 21 20 442 83 649
99 139 10 506 4 648 -10z"/>
</g>
</svg>
